<svg width="136" height="136" viewBox="0 0 136 136" fill="none" xmlns="http://www.w3.org/2000/svg">
<path d="M44.8214 29.1418V37.9213V98.6113V106.382" stroke="white" stroke-width="2" stroke-linecap="round" stroke-linejoin="round"/>
<path d="M90.7248 106.382V98.6113V37.9213V29.1418" stroke="white" stroke-width="2" stroke-linecap="round" stroke-linejoin="round"/>
<path d="M44.8214 29.1418L50.9358 25.925L54.7646 29.393L61.7043 26.3727L67.5278 29.4497L74.2277 26.5389L79.8112 29.1134L85.476 26.3727L90.6213 29.0133" stroke="white" stroke-width="2" stroke-linecap="round" stroke-linejoin="round"/>
<path d="M90.7252 106.382L84.0688 109.907L80.2381 106.437L73.2983 109.459L67.4749 106.382L60.775 109.291L55.1914 106.718L49.5267 109.459L44.9102 106.598" stroke="white" stroke-width="2" stroke-linecap="round" stroke-linejoin="round"/>
<path d="M51.5197 53.2905H67.2485" stroke="white" stroke-width="2" stroke-linecap="round" stroke-linejoin="round"/>
<path d="M76.932 53.2958H83.7087" stroke="white" stroke-width="2" stroke-linecap="round" stroke-linejoin="round"/>
<path d="M51.5197 63.7445H66.0772" stroke="white" stroke-width="2" stroke-linecap="round" stroke-linejoin="round"/>
<path d="M76.932 63.7536H83.7087" stroke="white" stroke-width="2" stroke-linecap="round" stroke-linejoin="round"/>
<path d="M51.5197 74.1606H64.2364" stroke="white" stroke-width="2" stroke-linecap="round" stroke-linejoin="round"/>
<path d="M76.932 74.2116H83.7087" stroke="white" stroke-width="2" stroke-linecap="round" stroke-linejoin="round"/>
<path d="M76.932 86.5519H83.7087" stroke="white" stroke-width="2" stroke-linecap="round" stroke-linejoin="round"/>
</svg>
